<svg width="25" height="25" viewBox="0 0 25 25" fill="none" xmlns="http://www.w3.org/2000/svg">
<path d="M18.476 7.23639C18.476 6.96416 18.3679 6.70308 18.1754 6.51059C17.9829 6.31809 17.7218 6.20995 17.4496 6.20995L9.2381 6.15863C8.96587 6.15863 8.70479 6.26677 8.5123 6.45927C8.3198 6.65176 8.21166 6.91284 8.21166 7.18507C8.21166 7.4573 8.3198 7.71837 8.5123 7.91087C8.70479 8.10336 8.96587 8.21151 9.2381 8.21151H14.9451L6.45645 16.7207C6.36024 16.8161 6.28388 16.9296 6.23177 17.0547C6.17966 17.1798 6.15283 17.3139 6.15283 17.4494C6.15283 17.5849 6.17966 17.7191 6.23177 17.8442C6.28388 17.9693 6.36024 18.0828 6.45645 18.1782C6.55187 18.2744 6.6654 18.3508 6.79048 18.4029C6.91556 18.455 7.04972 18.4818 7.18522 18.4818C7.32072 18.4818 7.45488 18.455 7.57997 18.4029C7.70505 18.3508 7.81857 18.2744 7.91399 18.1782L16.4232 9.66905V15.3966C16.4232 15.6688 16.5313 15.9299 16.7238 16.1224C16.9163 16.3149 17.1774 16.423 17.4496 16.423C17.7218 16.423 17.9829 16.3149 18.1754 16.1224C18.3679 15.9299 18.476 15.6688 18.476 15.3966V7.23639Z" fill="#231F20"/>
</svg>
